<svg width="250" height="224" viewBox="0 0 250 224" fill="none" xmlns="http://www.w3.org/2000/svg">
<path fill-rule="evenodd" clip-rule="evenodd" d="M237.374 49.2424C244.347 49.2424 250 54.8146 250 61.6883V198.593C250 205.195 247.34 211.526 242.604 216.194C237.868 220.862 231.445 223.485 224.747 223.485H186.869C179.895 223.485 174.242 217.913 174.242 211.039C174.242 204.165 179.895 198.593 186.869 198.593H224.747V61.6883C224.747 54.8146 230.4 49.2424 237.374 49.2424Z" fill="#2CA9BC"/>
<path fill-rule="evenodd" clip-rule="evenodd" d="M49.2424 61.8687C49.2424 54.8954 54.8601 49.2424 61.7898 49.2424H137.074C144.004 49.2424 149.621 54.8954 149.621 61.8687C149.621 68.842 144.004 74.495 137.074 74.495H61.7898C54.8601 74.495 49.2424 68.842 49.2424 61.8687ZM49.2424 112.374C49.2424 105.4 54.8601 99.7475 61.7898 99.7475H137.074C144.004 99.7475 149.621 105.4 149.621 112.374C149.621 119.347 144.004 125 137.074 125H61.7898C54.8601 125 49.2424 119.347 49.2424 112.374Z" fill="#2CA9BC"/>
<path fill-rule="evenodd" clip-rule="evenodd" d="M7.35007 7.30928C12.0562 2.62923 18.4392 0 25.0947 0H175.663C182.318 0 188.701 2.62923 193.408 7.30928C198.114 11.9893 200.758 18.3369 200.758 24.9554V149.733C200.758 156.351 198.114 162.699 193.408 167.379C188.701 172.059 182.318 174.688 175.663 174.688H150.568V199.643C150.568 204.139 148.137 208.287 144.203 210.502C140.269 212.716 135.442 212.656 131.565 210.343L71.8087 174.688H25.0947C18.4392 174.688 12.0562 172.059 7.35007 167.379C2.6439 162.699 0 156.351 0 149.733V24.9554C0 18.3368 2.6439 11.9893 7.35007 7.30928ZM175.663 24.9554H25.0947V149.733H75.2841C77.5582 149.733 79.7896 150.347 81.7396 151.511L125.473 177.605V162.21C125.473 155.319 131.091 149.733 138.021 149.733H175.663L175.663 24.9554Z" fill="#071B1E"/>
</svg>
