<svg width="820" height="224" viewBox="0 0 820 224" fill="none" xmlns="http://www.w3.org/2000/svg">
<path fill-rule="evenodd" clip-rule="evenodd" d="M237.374 49.2424C244.347 49.2424 250 54.8146 250 61.6883V198.593C250 205.195 247.34 211.526 242.604 216.194C237.868 220.862 231.445 223.485 224.747 223.485H186.869C179.895 223.485 174.242 217.913 174.242 211.039C174.242 204.165 179.895 198.593 186.869 198.593H224.747V61.6883C224.747 54.8146 230.4 49.2424 237.374 49.2424Z" fill="#2CA9BC"/>
<path fill-rule="evenodd" clip-rule="evenodd" d="M49.2424 61.8687C49.2424 54.8954 54.8601 49.2424 61.7898 49.2424H137.074C144.004 49.2424 149.621 54.8954 149.621 61.8687C149.621 68.842 144.004 74.495 137.074 74.495H61.7898C54.8601 74.495 49.2424 68.842 49.2424 61.8687ZM49.2424 112.374C49.2424 105.4 54.8601 99.7475 61.7898 99.7475H137.074C144.004 99.7475 149.621 105.4 149.621 112.374C149.621 119.347 144.004 125 137.074 125H61.7898C54.8601 125 49.2424 119.347 49.2424 112.374Z" fill="#2CA9BC"/>
<path fill-rule="evenodd" clip-rule="evenodd" d="M7.35007 7.30928C12.0562 2.62923 18.4392 0 25.0947 0H175.663C182.318 0 188.701 2.62923 193.408 7.30928C198.114 11.9893 200.758 18.3369 200.758 24.9554V149.733C200.758 156.351 198.114 162.699 193.408 167.379C188.701 172.059 182.318 174.688 175.663 174.688H150.568V199.643C150.568 204.139 148.137 208.287 144.203 210.502C140.269 212.716 135.442 212.656 131.565 210.343L71.8087 174.688H25.0947C18.4392 174.688 12.0562 172.059 7.35007 167.379C2.6439 162.699 0 156.351 0 149.733V24.9554C0 18.3368 2.6439 11.9893 7.35007 7.30928ZM175.663 24.9554H25.0947V149.733H75.2841C77.5582 149.733 79.7896 150.347 81.7396 151.511L125.473 177.605V162.21C125.473 155.319 131.091 149.733 138.021 149.733H175.663L175.663 24.9554Z" fill="white"/>
<path d="M388.698 73.972V154H369.204V106.006L351.306 154H335.574L317.562 105.892V154H298.068V73.972H321.096L343.554 129.376L365.784 73.972H388.698ZM462.68 121.168C462.68 122.992 462.566 124.892 462.338 126.868H418.22C418.524 130.82 419.778 133.86 421.982 135.988C424.262 138.04 427.036 139.066 430.304 139.066C435.168 139.066 438.55 137.014 440.45 132.91H461.198C460.134 137.09 458.196 140.852 455.384 144.196C452.648 147.54 449.19 150.162 445.01 152.062C440.83 153.962 436.156 154.912 430.988 154.912C424.756 154.912 419.208 153.582 414.344 150.922C409.48 148.262 405.68 144.462 402.944 139.522C400.208 134.582 398.84 128.806 398.84 122.194C398.84 115.582 400.17 109.806 402.83 104.866C405.566 99.926 409.366 96.126 414.23 93.466C419.094 90.806 424.68 89.476 430.988 89.476C437.144 89.476 442.616 90.768 447.404 93.352C452.192 95.936 455.916 99.622 458.576 104.41C461.312 109.198 462.68 114.784 462.68 121.168ZM442.73 116.038C442.73 112.694 441.59 110.034 439.31 108.058C437.03 106.082 434.18 105.094 430.76 105.094C427.492 105.094 424.718 106.044 422.438 107.944C420.234 109.844 418.866 112.542 418.334 116.038H442.73ZM498.842 154.912C493.294 154.912 488.354 153.962 484.022 152.062C479.69 150.162 476.27 147.578 473.762 144.31C471.254 140.966 469.848 137.242 469.544 133.138H488.81C489.038 135.342 490.064 137.128 491.888 138.496C493.712 139.864 495.954 140.548 498.614 140.548C501.046 140.548 502.908 140.092 504.2 139.18C505.568 138.192 506.252 136.938 506.252 135.418C506.252 133.594 505.302 132.264 503.402 131.428C501.502 130.516 498.424 129.528 494.168 128.464C489.608 127.4 485.808 126.298 482.768 125.158C479.728 123.942 477.106 122.08 474.902 119.572C472.698 116.988 471.596 113.53 471.596 109.198C471.596 105.55 472.584 102.244 474.56 99.28C476.612 96.24 479.576 93.846 483.452 92.098C487.404 90.35 492.078 89.476 497.474 89.476C505.454 89.476 511.724 91.452 516.284 95.404C520.92 99.356 523.58 104.6 524.264 111.136H506.252C505.948 108.932 504.96 107.184 503.288 105.892C501.692 104.6 499.564 103.954 496.904 103.954C494.624 103.954 492.876 104.41 491.66 105.322C490.444 106.158 489.836 107.336 489.836 108.856C489.836 110.68 490.786 112.048 492.686 112.96C494.662 113.872 497.702 114.784 501.806 115.696C506.518 116.912 510.356 118.128 513.32 119.344C516.284 120.484 518.868 122.384 521.072 125.044C523.352 127.628 524.53 131.124 524.606 135.532C524.606 139.256 523.542 142.6 521.414 145.564C519.362 148.452 516.36 150.732 512.408 152.404C508.532 154.076 504.01 154.912 498.842 154.912ZM562.411 154.912C556.863 154.912 551.923 153.962 547.591 152.062C543.259 150.162 539.839 147.578 537.331 144.31C534.823 140.966 533.417 137.242 533.113 133.138H552.379C552.607 135.342 553.633 137.128 555.457 138.496C557.281 139.864 559.523 140.548 562.183 140.548C564.615 140.548 566.477 140.092 567.769 139.18C569.137 138.192 569.821 136.938 569.821 135.418C569.821 133.594 568.871 132.264 566.971 131.428C565.071 130.516 561.993 129.528 557.737 128.464C553.177 127.4 549.377 126.298 546.337 125.158C543.297 123.942 540.675 122.08 538.471 119.572C536.267 116.988 535.165 113.53 535.165 109.198C535.165 105.55 536.153 102.244 538.129 99.28C540.181 96.24 543.145 93.846 547.021 92.098C550.973 90.35 555.647 89.476 561.043 89.476C569.023 89.476 575.293 91.452 579.853 95.404C584.489 99.356 587.149 104.6 587.833 111.136H569.821C569.517 108.932 568.529 107.184 566.857 105.892C565.261 104.6 563.133 103.954 560.473 103.954C558.193 103.954 556.445 104.41 555.229 105.322C554.013 106.158 553.405 107.336 553.405 108.856C553.405 110.68 554.355 112.048 556.255 112.96C558.231 113.872 561.271 114.784 565.375 115.696C570.087 116.912 573.925 118.128 576.889 119.344C579.853 120.484 582.437 122.384 584.641 125.044C586.921 127.628 588.099 131.124 588.175 135.532C588.175 139.256 587.111 142.6 584.983 145.564C582.931 148.452 579.929 150.732 575.977 152.404C572.101 154.076 567.579 154.912 562.411 154.912ZM596.225 122.08C596.225 115.544 597.441 109.806 599.873 104.866C602.381 99.926 605.763 96.126 610.019 93.466C614.275 90.806 619.025 89.476 624.269 89.476C628.753 89.476 632.667 90.388 636.011 92.212C639.431 94.036 642.053 96.43 643.877 99.394V90.388H663.371V154H643.877V144.994C641.977 147.958 639.317 150.352 635.897 152.176C632.553 154 628.639 154.912 624.155 154.912C618.987 154.912 614.275 153.582 610.019 150.922C605.763 148.186 602.381 144.348 599.873 139.408C597.441 134.392 596.225 128.616 596.225 122.08ZM643.877 122.194C643.877 117.33 642.509 113.492 639.773 110.68C637.113 107.868 633.845 106.462 629.969 106.462C626.093 106.462 622.787 107.868 620.051 110.68C617.391 113.416 616.061 117.216 616.061 122.08C616.061 126.944 617.391 130.82 620.051 133.708C622.787 136.52 626.093 137.926 629.969 137.926C633.845 137.926 637.113 136.52 639.773 133.708C642.509 130.896 643.877 127.058 643.877 122.194ZM701.642 89.476C706.126 89.476 710.04 90.388 713.384 92.212C716.804 94.036 719.426 96.43 721.25 99.394V90.388H740.744V153.886C740.744 159.738 739.566 165.02 737.21 169.732C734.93 174.52 731.396 178.32 726.608 181.132C721.896 183.944 716.006 185.35 708.938 185.35C699.514 185.35 691.876 183.108 686.024 178.624C680.172 174.216 676.828 168.212 675.992 160.612H695.258C695.866 163.044 697.31 164.944 699.59 166.312C701.87 167.756 704.682 168.478 708.026 168.478C712.054 168.478 715.246 167.3 717.602 164.944C720.034 162.664 721.25 158.978 721.25 153.886V144.88C719.35 147.844 716.728 150.276 713.384 152.176C710.04 154 706.126 154.912 701.642 154.912C696.398 154.912 691.648 153.582 687.392 150.922C683.136 148.186 679.754 144.348 677.246 139.408C674.814 134.392 673.598 128.616 673.598 122.08C673.598 115.544 674.814 109.806 677.246 104.866C679.754 99.926 683.136 96.126 687.392 93.466C691.648 90.806 696.398 89.476 701.642 89.476ZM721.25 122.194C721.25 117.33 719.882 113.492 717.146 110.68C714.486 107.868 711.218 106.462 707.342 106.462C703.466 106.462 700.16 107.868 697.424 110.68C694.764 113.416 693.434 117.216 693.434 122.08C693.434 126.944 694.764 130.82 697.424 133.708C700.16 136.52 703.466 137.926 707.342 137.926C711.218 137.926 714.486 136.52 717.146 133.708C719.882 130.896 721.25 127.058 721.25 122.194ZM819.827 90.388L779.927 184.21H758.951L773.543 151.834L747.665 90.388H769.439L784.145 130.174L798.737 90.388H819.827Z" fill="white"/>
</svg>
